<mxfile host="app.diagrams.net" agent="Mozilla/5.0 (Windows NT 10.0; Win64; x64; rv:136.0) Gecko/20100101 Firefox/136.0" version="26.1.1">
  <diagram name="Страница — 1" id="fe4afWmqSPOwGRRfu1oG">
    <mxGraphModel dx="2619" dy="1353" grid="1" gridSize="10" guides="1" tooltips="1" connect="1" arrows="1" fold="1" page="0" pageScale="1" pageWidth="827" pageHeight="1169" background="#000000" math="0" shadow="0" adaptiveColors="simple">
      <root>
        <mxCell id="0" />
        <mxCell id="1" parent="0" />
        <mxCell id="N8eQh9thFCZGvSdchSBF-1" value="что можно сделать утром?" style="rounded=0;whiteSpace=wrap;html=1;labelBackgroundColor=none;fillColor=#00FF08;strokeColor=#666666;fontColor=#000000;gradientColor=none;fontSize=16;" parent="1" vertex="1">
          <mxGeometry x="-160" y="-120" width="750" height="60" as="geometry" />
        </mxCell>
        <mxCell id="CcC4EHF6xNmilOeLvd2F-5" style="edgeStyle=orthogonalEdgeStyle;rounded=0;orthogonalLoop=1;jettySize=auto;html=1;entryX=0.25;entryY=0;entryDx=0;entryDy=0;" parent="1" source="qaedK1OBrXd_NtfnD_xV-1" target="qaedK1OBrXd_NtfnD_xV-21" edge="1">
          <mxGeometry relative="1" as="geometry" />
        </mxCell>
        <mxCell id="qaedK1OBrXd_NtfnD_xV-1" value="пройти 77 ккал на дорожке" style="rounded=0;whiteSpace=wrap;html=1;labelBackgroundColor=none;fillColor=#60a917;strokeColor=#2D7600;fontColor=#ffffff;" parent="1" vertex="1">
          <mxGeometry x="-150" y="-10" width="120" height="60" as="geometry" />
        </mxCell>
        <mxCell id="qaedK1OBrXd_NtfnD_xV-2" value="сделать 2 повтора табаты" style="rounded=0;whiteSpace=wrap;html=1;labelBackgroundColor=none;" parent="1" vertex="1">
          <mxGeometry x="-140" y="240" width="120" height="60" as="geometry" />
        </mxCell>
        <mxCell id="qaedK1OBrXd_NtfnD_xV-3" value="почистить зубы" style="rounded=0;whiteSpace=wrap;html=1;labelBackgroundColor=none;fillColor=#60a917;fontColor=#ffffff;strokeColor=#2D7600;" parent="1" vertex="1">
          <mxGeometry x="200" y="240" width="120" height="60" as="geometry" />
        </mxCell>
        <mxCell id="qaedK1OBrXd_NtfnD_xV-21" value="&lt;div&gt;контрастный душ&lt;/div&gt;&lt;div&gt;&lt;br&gt;&lt;/div&gt;" style="rounded=0;whiteSpace=wrap;html=1;labelBackgroundColor=none;fillColor=#60a917;fontColor=#ffffff;strokeColor=#2D7600;" parent="1" vertex="1">
          <mxGeometry x="-90" y="125" width="120" height="60" as="geometry" />
        </mxCell>
        <mxCell id="qaedK1OBrXd_NtfnD_xV-5" value="сварить покушать" style="rounded=0;whiteSpace=wrap;html=1;labelBackgroundColor=none;fillColor=#60a917;fontColor=#ffffff;strokeColor=#2D7600;" parent="1" vertex="1">
          <mxGeometry x="240" y="580" width="120" height="60" as="geometry" />
        </mxCell>
        <mxCell id="aKsCuJh0maRcEQ2Xi9_0-6" style="edgeStyle=orthogonalEdgeStyle;rounded=0;orthogonalLoop=1;jettySize=auto;html=1;entryX=0;entryY=0.5;entryDx=0;entryDy=0;" parent="1" source="qaedK1OBrXd_NtfnD_xV-15" target="qaedK1OBrXd_NtfnD_xV-5" edge="1">
          <mxGeometry relative="1" as="geometry" />
        </mxCell>
        <mxCell id="qaedK1OBrXd_NtfnD_xV-15" value="выпить яблочный уксус" style="rounded=0;whiteSpace=wrap;html=1;labelBackgroundColor=none;fillColor=#60a917;fontColor=#ffffff;strokeColor=#2D7600;" parent="1" vertex="1">
          <mxGeometry x="50" y="580" width="120" height="60" as="geometry" />
        </mxCell>
        <mxCell id="qaedK1OBrXd_NtfnD_xV-16" value="размять желчный пузырь" style="rounded=0;whiteSpace=wrap;html=1;labelBackgroundColor=none;fillColor=#60a917;fontColor=#ffffff;strokeColor=#2D7600;" parent="1" vertex="1">
          <mxGeometry x="240" y="500" width="120" height="60" as="geometry" />
        </mxCell>
        <mxCell id="aKsCuJh0maRcEQ2Xi9_0-4" style="edgeStyle=orthogonalEdgeStyle;rounded=0;orthogonalLoop=1;jettySize=auto;html=1;entryX=0;entryY=0.5;entryDx=0;entryDy=0;" parent="1" source="qaedK1OBrXd_NtfnD_xV-17" target="qaedK1OBrXd_NtfnD_xV-16" edge="1">
          <mxGeometry relative="1" as="geometry" />
        </mxCell>
        <mxCell id="qaedK1OBrXd_NtfnD_xV-17" value="сделать вакуум" style="rounded=0;whiteSpace=wrap;html=1;labelBackgroundColor=none;fillColor=#60a917;fontColor=#ffffff;strokeColor=#2D7600;" parent="1" vertex="1">
          <mxGeometry x="50" y="500" width="120" height="60" as="geometry" />
        </mxCell>
        <mxCell id="qaedK1OBrXd_NtfnD_xV-18" value="&lt;div&gt;сделать планку&lt;/div&gt;" style="rounded=0;whiteSpace=wrap;html=1;labelBackgroundColor=none;" parent="1" vertex="1">
          <mxGeometry x="-140" y="450" width="120" height="60" as="geometry" />
        </mxCell>
        <mxCell id="qaedK1OBrXd_NtfnD_xV-6" value="thumb pulling" style="rounded=0;whiteSpace=wrap;html=1;labelBackgroundColor=none;fillColor=#60a917;fontColor=#ffffff;strokeColor=#2D7600;" parent="1" vertex="1">
          <mxGeometry x="470" y="120" width="120" height="60" as="geometry" />
        </mxCell>
        <mxCell id="qaedK1OBrXd_NtfnD_xV-7" value="разминка челюстей" style="rounded=0;whiteSpace=wrap;html=1;labelBackgroundColor=none;" parent="1" vertex="1">
          <mxGeometry x="470" y="190" width="120" height="60" as="geometry" />
        </mxCell>
        <mxCell id="qaedK1OBrXd_NtfnD_xV-8" value="голосовые упражнения" style="rounded=0;whiteSpace=wrap;html=1;labelBackgroundColor=none;" parent="1" vertex="1">
          <mxGeometry x="470" y="260" width="120" height="60" as="geometry" />
        </mxCell>
        <mxCell id="qaedK1OBrXd_NtfnD_xV-19" value="&lt;div&gt;говорить с закрытым ртом&lt;/div&gt;" style="rounded=0;whiteSpace=wrap;html=1;labelBackgroundColor=none;" parent="1" vertex="1">
          <mxGeometry x="470" y="330" width="120" height="60" as="geometry" />
        </mxCell>
        <mxCell id="qaedK1OBrXd_NtfnD_xV-9" value="посмотреть ютуб?" style="rounded=0;whiteSpace=wrap;html=1;labelBackgroundColor=none;" parent="1" vertex="1">
          <mxGeometry x="330" y="190" width="120" height="60" as="geometry" />
        </mxCell>
        <mxCell id="qaedK1OBrXd_NtfnD_xV-10" value="&lt;div&gt;попрыгать на скакалке&lt;/div&gt;" style="rounded=0;whiteSpace=wrap;html=1;labelBackgroundColor=none;" parent="1" vertex="1">
          <mxGeometry x="-140" y="380" width="120" height="60" as="geometry" />
        </mxCell>
        <mxCell id="qaedK1OBrXd_NtfnD_xV-11" value="&lt;div&gt;2 минуты хватать рис быстро жеско&lt;/div&gt;" style="rounded=0;whiteSpace=wrap;html=1;labelBackgroundColor=none;" parent="1" vertex="1">
          <mxGeometry x="-140" y="310" width="120" height="60" as="geometry" />
        </mxCell>
        <mxCell id="qaedK1OBrXd_NtfnD_xV-12" value="анки повтори" style="rounded=0;whiteSpace=wrap;html=1;labelBackgroundColor=none;" parent="1" vertex="1">
          <mxGeometry x="330" y="120" width="120" height="60" as="geometry" />
        </mxCell>
        <mxCell id="qaedK1OBrXd_NtfnD_xV-13" value="&lt;div&gt;записать дела в блокнот с вечера&lt;/div&gt;" style="rounded=0;whiteSpace=wrap;html=1;labelBackgroundColor=none;fillColor=#60a917;fontColor=#ffffff;strokeColor=#2D7600;" parent="1" vertex="1">
          <mxGeometry x="710" y="120" width="120" height="60" as="geometry" />
        </mxCell>
        <mxCell id="aKsCuJh0maRcEQ2Xi9_0-3" style="edgeStyle=orthogonalEdgeStyle;rounded=0;orthogonalLoop=1;jettySize=auto;html=1;" parent="1" source="aKsCuJh0maRcEQ2Xi9_0-1" target="qaedK1OBrXd_NtfnD_xV-3" edge="1">
          <mxGeometry relative="1" as="geometry" />
        </mxCell>
        <mxCell id="aKsCuJh0maRcEQ2Xi9_0-1" value="oil pulling" style="rounded=0;whiteSpace=wrap;html=1;labelBackgroundColor=none;fillColor=#60a917;fontColor=#ffffff;strokeColor=#2D7600;" parent="1" vertex="1">
          <mxGeometry x="200" y="120" width="120" height="60" as="geometry" />
        </mxCell>
        <mxCell id="aKsCuJh0maRcEQ2Xi9_0-7" value="&lt;div&gt;что можно делать вечером&lt;/div&gt;" style="rounded=0;whiteSpace=wrap;html=1;labelBackgroundColor=none;fillColor=#00FF08;strokeColor=#666666;fontColor=#000000;gradientColor=none;fontSize=16;" parent="1" vertex="1">
          <mxGeometry x="710" y="40" width="560" height="60" as="geometry" />
        </mxCell>
        <mxCell id="aKsCuJh0maRcEQ2Xi9_0-8" value="почистить зубы" style="rounded=0;whiteSpace=wrap;html=1;labelBackgroundColor=none;fillColor=#60a917;fontColor=#ffffff;strokeColor=#2D7600;" parent="1" vertex="1">
          <mxGeometry x="860" y="240" width="120" height="60" as="geometry" />
        </mxCell>
        <mxCell id="aKsCuJh0maRcEQ2Xi9_0-9" style="edgeStyle=orthogonalEdgeStyle;rounded=0;orthogonalLoop=1;jettySize=auto;html=1;" parent="1" source="aKsCuJh0maRcEQ2Xi9_0-10" target="aKsCuJh0maRcEQ2Xi9_0-8" edge="1">
          <mxGeometry relative="1" as="geometry" />
        </mxCell>
        <mxCell id="aKsCuJh0maRcEQ2Xi9_0-10" value="oil pulling" style="rounded=0;whiteSpace=wrap;html=1;labelBackgroundColor=none;fillColor=#60a917;fontColor=#ffffff;strokeColor=#2D7600;" parent="1" vertex="1">
          <mxGeometry x="860" y="120" width="120" height="60" as="geometry" />
        </mxCell>
        <mxCell id="aKsCuJh0maRcEQ2Xi9_0-11" value="&lt;div&gt;что можно делать&amp;nbsp; когда работаешь в такси&lt;/div&gt;" style="rounded=0;whiteSpace=wrap;html=1;labelBackgroundColor=none;fillColor=#00FF08;strokeColor=#666666;fontColor=#000000;gradientColor=none;fontSize=16;" parent="1" vertex="1">
          <mxGeometry x="1360" y="40" width="560" height="60" as="geometry" />
        </mxCell>
        <mxCell id="aKsCuJh0maRcEQ2Xi9_0-12" value="читать скоровогорки с закрытым ртом" style="rounded=0;whiteSpace=wrap;html=1;labelBackgroundColor=none;fillColor=#60a917;fontColor=#ffffff;strokeColor=#2D7600;" parent="1" vertex="1">
          <mxGeometry x="1360" y="120" width="200" height="70" as="geometry" />
        </mxCell>
        <mxCell id="aKsCuJh0maRcEQ2Xi9_0-13" value="размять мышцы горла, пальцем в кадык" style="rounded=0;whiteSpace=wrap;html=1;labelBackgroundColor=none;" parent="1" vertex="1">
          <mxGeometry x="1360" y="280" width="120" height="60" as="geometry" />
        </mxCell>
        <mxCell id="aKsCuJh0maRcEQ2Xi9_0-14" value="делать упражнение кегеля" style="rounded=0;whiteSpace=wrap;html=1;labelBackgroundColor=none;fillColor=#60a917;fontColor=#ffffff;strokeColor=#2D7600;" parent="1" vertex="1">
          <mxGeometry x="1360" y="200" width="120" height="70" as="geometry" />
        </mxCell>
        <mxCell id="aKsCuJh0maRcEQ2Xi9_0-15" value="как лошадь расслабить губы" style="rounded=0;whiteSpace=wrap;html=1;labelBackgroundColor=none;" parent="1" vertex="1">
          <mxGeometry x="1360" y="360" width="120" height="60" as="geometry" />
        </mxCell>
        <mxCell id="CcC4EHF6xNmilOeLvd2F-1" value="&lt;div&gt;сделать планку&lt;/div&gt;" style="rounded=0;whiteSpace=wrap;html=1;labelBackgroundColor=none;" parent="1" vertex="1">
          <mxGeometry x="-140" y="520" width="120" height="60" as="geometry" />
        </mxCell>
        <mxCell id="CcC4EHF6xNmilOeLvd2F-7" value="" style="edgeStyle=orthogonalEdgeStyle;rounded=0;orthogonalLoop=1;jettySize=auto;html=1;" parent="1" source="CcC4EHF6xNmilOeLvd2F-2" target="CcC4EHF6xNmilOeLvd2F-6" edge="1">
          <mxGeometry relative="1" as="geometry" />
        </mxCell>
        <mxCell id="CcC4EHF6xNmilOeLvd2F-2" value="треня с гирей" style="rounded=0;whiteSpace=wrap;html=1;labelBackgroundColor=none;fillColor=#1ba1e2;fontColor=#ffffff;strokeColor=#006EAF;" parent="1" vertex="1">
          <mxGeometry x="10" y="-10" width="120" height="60" as="geometry" />
        </mxCell>
        <mxCell id="CcC4EHF6xNmilOeLvd2F-4" style="edgeStyle=orthogonalEdgeStyle;rounded=0;orthogonalLoop=1;jettySize=auto;html=1;entryX=0.842;entryY=0.083;entryDx=0;entryDy=0;entryPerimeter=0;" parent="1" source="CcC4EHF6xNmilOeLvd2F-2" target="qaedK1OBrXd_NtfnD_xV-21" edge="1">
          <mxGeometry relative="1" as="geometry" />
        </mxCell>
        <mxCell id="CcC4EHF6xNmilOeLvd2F-9" value="" style="edgeStyle=orthogonalEdgeStyle;rounded=0;orthogonalLoop=1;jettySize=auto;html=1;" parent="1" source="CcC4EHF6xNmilOeLvd2F-6" target="CcC4EHF6xNmilOeLvd2F-8" edge="1">
          <mxGeometry relative="1" as="geometry" />
        </mxCell>
        <mxCell id="CcC4EHF6xNmilOeLvd2F-6" value="рис" style="rounded=0;whiteSpace=wrap;html=1;labelBackgroundColor=none;fillColor=#1ba1e2;fontColor=#ffffff;strokeColor=#006EAF;" parent="1" vertex="1">
          <mxGeometry x="160" y="-10" width="120" height="60" as="geometry" />
        </mxCell>
        <mxCell id="CcC4EHF6xNmilOeLvd2F-8" value="шея" style="rounded=0;whiteSpace=wrap;html=1;labelBackgroundColor=none;fillColor=#1ba1e2;fontColor=#ffffff;strokeColor=#006EAF;" parent="1" vertex="1">
          <mxGeometry x="300" y="-10" width="120" height="60" as="geometry" />
        </mxCell>
        <mxCell id="WgQGkhrrFzXl0-k6VCGC-6" style="edgeStyle=orthogonalEdgeStyle;rounded=0;orthogonalLoop=1;jettySize=auto;html=1;entryX=0;entryY=0.5;entryDx=0;entryDy=0;" parent="1" source="WgQGkhrrFzXl0-k6VCGC-1" target="WgQGkhrrFzXl0-k6VCGC-2" edge="1">
          <mxGeometry relative="1" as="geometry" />
        </mxCell>
        <mxCell id="WgQGkhrrFzXl0-k6VCGC-1" value="арбитраж" style="rounded=0;whiteSpace=wrap;html=1;labelBackgroundColor=none;glass=0;shadow=0;gradientColor=#FFFF00;" parent="1" vertex="1">
          <mxGeometry x="710" y="570" width="120" height="60" as="geometry" />
        </mxCell>
        <mxCell id="WgQGkhrrFzXl0-k6VCGC-7" style="edgeStyle=orthogonalEdgeStyle;rounded=0;orthogonalLoop=1;jettySize=auto;html=1;entryX=0;entryY=0.5;entryDx=0;entryDy=0;" parent="1" source="WgQGkhrrFzXl0-k6VCGC-2" target="WgQGkhrrFzXl0-k6VCGC-3" edge="1">
          <mxGeometry relative="1" as="geometry" />
        </mxCell>
        <mxCell id="WgQGkhrrFzXl0-k6VCGC-2" value="включить впн" style="rounded=0;whiteSpace=wrap;html=1;labelBackgroundColor=none;" parent="1" vertex="1">
          <mxGeometry x="900" y="550" width="120" height="60" as="geometry" />
        </mxCell>
        <mxCell id="WgQGkhrrFzXl0-k6VCGC-8" style="edgeStyle=orthogonalEdgeStyle;rounded=0;orthogonalLoop=1;jettySize=auto;html=1;entryX=0;entryY=0.5;entryDx=0;entryDy=0;" parent="1" source="WgQGkhrrFzXl0-k6VCGC-3" target="WgQGkhrrFzXl0-k6VCGC-4" edge="1">
          <mxGeometry relative="1" as="geometry" />
        </mxCell>
        <mxCell id="WgQGkhrrFzXl0-k6VCGC-3" value="залогиниться на всех CEX" style="rounded=0;whiteSpace=wrap;html=1;labelBackgroundColor=none;" parent="1" vertex="1">
          <mxGeometry x="1080" y="600" width="120" height="60" as="geometry" />
        </mxCell>
        <mxCell id="WgQGkhrrFzXl0-k6VCGC-9" style="edgeStyle=orthogonalEdgeStyle;rounded=0;orthogonalLoop=1;jettySize=auto;html=1;entryX=0;entryY=0.5;entryDx=0;entryDy=0;" parent="1" source="WgQGkhrrFzXl0-k6VCGC-4" target="WgQGkhrrFzXl0-k6VCGC-5" edge="1">
          <mxGeometry relative="1" as="geometry" />
        </mxCell>
        <mxCell id="WgQGkhrrFzXl0-k6VCGC-4" value="открыть сканер" style="rounded=0;whiteSpace=wrap;html=1;labelBackgroundColor=none;" parent="1" vertex="1">
          <mxGeometry x="1260" y="550" width="120" height="60" as="geometry" />
        </mxCell>
        <mxCell id="WgQGkhrrFzXl0-k6VCGC-5" value="открыть гугл таблицу" style="rounded=0;whiteSpace=wrap;html=1;labelBackgroundColor=none;" parent="1" vertex="1">
          <mxGeometry x="1430" y="600" width="120" height="60" as="geometry" />
        </mxCell>
        <mxCell id="_ZwK7QbyQ14p1v2Xehof-2" value="позагорать" style="rounded=0;whiteSpace=wrap;html=1;labelBackgroundColor=none;" vertex="1" parent="1">
          <mxGeometry x="-130" y="760" width="120" height="60" as="geometry" />
        </mxCell>
        <mxCell id="_ZwK7QbyQ14p1v2Xehof-4" value="цинк мазь" style="rounded=0;whiteSpace=wrap;html=1;labelBackgroundColor=none;" vertex="1" parent="1">
          <mxGeometry x="-120" y="770" width="120" height="60" as="geometry" />
        </mxCell>
        <mxCell id="_ZwK7QbyQ14p1v2Xehof-5" value="умыться" style="rounded=0;whiteSpace=wrap;html=1;labelBackgroundColor=none;" vertex="1" parent="1">
          <mxGeometry x="-110" y="780" width="120" height="60" as="geometry" />
        </mxCell>
        <mxCell id="_ZwK7QbyQ14p1v2Xehof-6" value="намазать увлажняющий крем" style="rounded=0;whiteSpace=wrap;html=1;labelBackgroundColor=none;" vertex="1" parent="1">
          <mxGeometry x="-100" y="790" width="120" height="60" as="geometry" />
        </mxCell>
        <mxCell id="_ZwK7QbyQ14p1v2Xehof-7" value="посчитать деньги" style="rounded=0;whiteSpace=wrap;html=1;labelBackgroundColor=none;" vertex="1" parent="1">
          <mxGeometry x="-90" y="800" width="120" height="60" as="geometry" />
        </mxCell>
        <mxCell id="_ZwK7QbyQ14p1v2Xehof-8" value="массаж десен" style="rounded=0;whiteSpace=wrap;html=1;labelBackgroundColor=none;" vertex="1" parent="1">
          <mxGeometry x="-80" y="810" width="120" height="60" as="geometry" />
        </mxCell>
        <mxCell id="_ZwK7QbyQ14p1v2Xehof-9" value="включить увлажнитель воздуха" style="rounded=0;whiteSpace=wrap;html=1;labelBackgroundColor=none;" vertex="1" parent="1">
          <mxGeometry x="-70" y="820" width="120" height="60" as="geometry" />
        </mxCell>
        <mxCell id="_ZwK7QbyQ14p1v2Xehof-10" value="подмести в комнате" style="rounded=0;whiteSpace=wrap;html=1;labelBackgroundColor=none;" vertex="1" parent="1">
          <mxGeometry x="-60" y="830" width="120" height="60" as="geometry" />
        </mxCell>
        <mxCell id="_ZwK7QbyQ14p1v2Xehof-11" value="подмести на кухне" style="rounded=0;whiteSpace=wrap;html=1;labelBackgroundColor=none;" vertex="1" parent="1">
          <mxGeometry x="-50" y="840" width="120" height="60" as="geometry" />
        </mxCell>
        <mxCell id="_ZwK7QbyQ14p1v2Xehof-12" value="помыть полы" style="rounded=0;whiteSpace=wrap;html=1;labelBackgroundColor=none;" vertex="1" parent="1">
          <mxGeometry x="-40" y="850" width="120" height="60" as="geometry" />
        </mxCell>
        <mxCell id="_ZwK7QbyQ14p1v2Xehof-13" value="протереть пыль" style="rounded=0;whiteSpace=wrap;html=1;labelBackgroundColor=none;" vertex="1" parent="1">
          <mxGeometry x="-30" y="860" width="120" height="60" as="geometry" />
        </mxCell>
        <mxCell id="_ZwK7QbyQ14p1v2Xehof-14" value="помыть ванну" style="rounded=0;whiteSpace=wrap;html=1;labelBackgroundColor=none;" vertex="1" parent="1">
          <mxGeometry x="-20" y="870" width="120" height="60" as="geometry" />
        </mxCell>
        <mxCell id="_ZwK7QbyQ14p1v2Xehof-15" value="помыть унитаз" style="rounded=0;whiteSpace=wrap;html=1;labelBackgroundColor=none;" vertex="1" parent="1">
          <mxGeometry x="-10" y="880" width="120" height="60" as="geometry" />
        </mxCell>
        <mxCell id="_ZwK7QbyQ14p1v2Xehof-16" value="помыть раковину" style="rounded=0;whiteSpace=wrap;html=1;labelBackgroundColor=none;" vertex="1" parent="1">
          <mxGeometry y="890" width="120" height="60" as="geometry" />
        </mxCell>
        <mxCell id="_ZwK7QbyQ14p1v2Xehof-17" value="вынести мусор" style="rounded=0;whiteSpace=wrap;html=1;labelBackgroundColor=none;" vertex="1" parent="1">
          <mxGeometry x="10" y="900" width="120" height="60" as="geometry" />
        </mxCell>
        <mxCell id="_ZwK7QbyQ14p1v2Xehof-18" value="сделать массаж шариком" style="rounded=0;whiteSpace=wrap;html=1;labelBackgroundColor=none;" vertex="1" parent="1">
          <mxGeometry x="20" y="910" width="120" height="60" as="geometry" />
        </mxCell>
        <mxCell id="_ZwK7QbyQ14p1v2Xehof-19" value="сделать массаж спины роликом" style="rounded=0;whiteSpace=wrap;html=1;labelBackgroundColor=none;" vertex="1" parent="1">
          <mxGeometry x="30" y="920" width="120" height="60" as="geometry" />
        </mxCell>
        <mxCell id="_ZwK7QbyQ14p1v2Xehof-20" value="&lt;div&gt;считать калории весь день&lt;/div&gt;" style="rounded=0;whiteSpace=wrap;html=1;labelBackgroundColor=none;" vertex="1" parent="1">
          <mxGeometry x="40" y="930" width="120" height="60" as="geometry" />
        </mxCell>
        <mxCell id="_ZwK7QbyQ14p1v2Xehof-21" value="запланировать задачи в блокнот" style="rounded=0;whiteSpace=wrap;html=1;labelBackgroundColor=none;" vertex="1" parent="1">
          <mxGeometry x="50" y="940" width="120" height="60" as="geometry" />
        </mxCell>
        <mxCell id="_ZwK7QbyQ14p1v2Xehof-22" value="намазать язвы хлоргексидином" style="rounded=0;whiteSpace=wrap;html=1;labelBackgroundColor=none;" vertex="1" parent="1">
          <mxGeometry x="60" y="950" width="120" height="60" as="geometry" />
        </mxCell>
        <mxCell id="_ZwK7QbyQ14p1v2Xehof-23" value="&lt;div&gt;снять зажимы челюсти&lt;/div&gt;" style="rounded=0;whiteSpace=wrap;html=1;labelBackgroundColor=none;" vertex="1" parent="1">
          <mxGeometry x="70" y="970" width="120" height="60" as="geometry" />
        </mxCell>
        <mxCell id="_ZwK7QbyQ14p1v2Xehof-24" value="&lt;div&gt;снять зажимы горла&lt;/div&gt;" style="rounded=0;whiteSpace=wrap;html=1;labelBackgroundColor=none;" vertex="1" parent="1">
          <mxGeometry x="80" y="980" width="120" height="60" as="geometry" />
        </mxCell>
      </root>
    </mxGraphModel>
  </diagram>
</mxfile>
